<?xml version="1.0" standalone="no"?>
<!DOCTYPE svg PUBLIC "-//W3C//DTD SVG 20010904//EN"
 "http://www.w3.org/TR/2001/REC-SVG-20010904/DTD/svg10.dtd">
<svg version="1.0" xmlns="http://www.w3.org/2000/svg"
 viewBox="0 0 512.000000 512.000000"
 preserveAspectRatio="xMidYMid meet">

<g transform="translate(0.000000,512.000000) scale(0.100000,-0.100000)"
fill="#fbfbfb" stroke="none">
<path d="M2350 3415 l0 -1495 -215 0 -215 0 0 215 0 215 -215 0 -215 0 0 210
0 210 -210 0 -210 0 0 -210 0 -210 210 0 210 0 0 -215 0 -215 215 0 215 0 0
-215 0 -215 215 0 215 0 0 -210 0 -210 210 0 210 0 0 210 0 210 215 0 215 0 0
215 0 215 215 0 215 0 0 215 0 215 210 0 210 0 0 210 0 210 -210 0 -210 0 0
-210 0 -210 -215 0 -215 0 0 -215 0 -215 -215 0 -215 0 0 1495 0 1495 -210 0
-210 0 0 -1495z"/>
<path d="M1172 428 l3 -213 1385 0 1385 0 3 213 2 212 -1390 0 -1390 0 2 -212z"/>
</g>
</svg>